HIERARCHY
ROOT Hips
{
	OFFSET 55.235100 -11.689315 96.007401
	CHANNELS 6 Xposition Yposition Zposition Xrotation Yrotation Zrotation
	JOINT spine
	{
		OFFSET 0.000000 -0.467661 8.132500
		CHANNELS 3 Xrotation Yrotation Zrotation
		JOINT spine1
		{
			OFFSET 0.000000 -0.000002 10.349800
			CHANNELS 3 Xrotation Yrotation Zrotation
			JOINT spine2
			{
				OFFSET 0.000000 -0.000001 9.916992
				CHANNELS 3 Xrotation Yrotation Zrotation
				JOINT Neck
				{
					OFFSET 0.000000 -1.213904 25.460999
					CHANNELS 3 Xrotation Yrotation Zrotation
					JOINT Head
					{
						OFFSET 0.000000 -0.000001 7.692444
						CHANNELS 3 Xrotation Yrotation Zrotation
						End Site
						{
							OFFSET 0.000000 6.140627 18.619995
						}
					}
				}
				JOINT RightShoulder
				{
					OFFSET -4.175751 0.581443 10.709595
					CHANNELS 3 Xrotation Yrotation Zrotation
					JOINT RightArm
					{
						OFFSET 0.000000 -0.000002 14.046600
						CHANNELS 3 Xrotation Yrotation Zrotation
						JOINT RightArmRoll
						{
							OFFSET 0.000000 -0.000002 7.090988
							CHANNELS 3 Xrotation Yrotation Zrotation
							JOINT RightForeArm
							{
								OFFSET 0.000000 -0.000003 20.653503
								CHANNELS 3 Xrotation Yrotation Zrotation
								JOINT RightForeArmRoll
								{
									OFFSET 0.000000 -0.000002 7.957184
									CHANNELS 3 Xrotation Yrotation Zrotation
									JOINT RightHand
									{
										OFFSET 0.000000 -0.000002 15.968292
										CHANNELS 3 Xrotation Yrotation Zrotation
										End Site
										{
											OFFSET 0.000000 0.000000 0.100006
										}
									}
								}
							}
						}
					}
				}
				JOINT LeftShoulder
				{
					OFFSET 4.175751 0.581443 10.709595
					CHANNELS 3 Xrotation Yrotation Zrotation
					JOINT LeftArm
					{
						OFFSET 0.000000 -0.000002 14.046600
						CHANNELS 3 Xrotation Yrotation Zrotation
						JOINT LeftArmRoll
						{
							OFFSET 0.000000 -0.000002 7.090988
							CHANNELS 3 Xrotation Yrotation Zrotation
							JOINT LeftForeArm
							{
								OFFSET 0.000000 -0.000003 20.653503
								CHANNELS 3 Xrotation Yrotation Zrotation
								JOINT LeftForeArmRoll
								{
									OFFSET 0.000000 -0.000002 7.957184
									CHANNELS 3 Xrotation Yrotation Zrotation
									JOINT LeftHand
									{
										OFFSET 0.000000 -0.000002 15.968292
										CHANNELS 3 Xrotation Yrotation Zrotation
										End Site
										{
											OFFSET 0.000000 0.000000 0.100006
										}
									}
								}
							}
						}
					}
				}
			}
		}
	}
	JOINT RightUpLeg
	{
		OFFSET -7.208340 1.108840 -1.321823
		CHANNELS 3 Xrotation Yrotation Zrotation
		JOINT RightUpLegRoll
		{
			OFFSET 0.000000 -0.000003 18.723801
			CHANNELS 3 Xrotation Yrotation Zrotation
			JOINT RightLeg
			{
				OFFSET 0.000000 0.000004 -23.186600
				CHANNELS 3 Xrotation Yrotation Zrotation
				JOINT RightLegRoll
				{
					OFFSET 0.000000 -0.000004 23.262398
					CHANNELS 3 Xrotation Yrotation Zrotation
					JOINT RightFoot
					{
						OFFSET 0.000000 -0.000004 19.362099
						CHANNELS 3 Xrotation Yrotation Zrotation
						JOINT RightToeBase
						{
							OFFSET 0.000000 -0.000002 16.185699
							CHANNELS 3 Xrotation Yrotation Zrotation
							End Site
							{
								OFFSET 0.006859 0.903521 7.838623
							}
						}
					}
				}
			}
		}
	}
	JOINT LeftUpLeg
	{
		OFFSET 7.208340 1.108840 -1.321823
		CHANNELS 3 Xrotation Yrotation Zrotation
		JOINT LeftUpLegRoll
		{
			OFFSET 0.000000 -0.000003 18.723900
			CHANNELS 3 Xrotation Yrotation Zrotation
			JOINT LeftLeg
			{
				OFFSET 0.000000 -0.000004 23.186501
				CHANNELS 3 Xrotation Yrotation Zrotation
				JOINT LeftLegRoll
				{
					OFFSET 0.000000 -0.000004 23.477509
					CHANNELS 3 Xrotation Yrotation Zrotation
					JOINT LeftFoot
					{
						OFFSET 0.000000 -0.000004 19.147003
						CHANNELS 3 Xrotation Yrotation Zrotation
						JOINT LeftToeBase
						{
							OFFSET 0.000000 -0.000002 16.185699
							CHANNELS 3 Xrotation Yrotation Zrotation
							End Site
							{
								OFFSET -0.030746 0.903521 7.838623
							}
						}
					}
				}
			}
		}
	}
}
MOTION
Frames: 13
Frame Time: 0.041667
55.132706 -8.589106 96.101891 -3.540850 0.509455 0.351145 -1.436462 -0.506203 0.037847 1.129701 -1.027700 0.080834 2.774866 -1.026645 0.093134 12.001895 0.767393 -7.455205 3.776843 -2.646039 -7.229157 -18.380369 -60.219278 -21.728177 -49.533597 -117.357430 -23.562402 -0.000004 -0.000000 -0.000006 0.029469 -4.532070 -0.692554 0.000003 0.000009 -3.042749 -5.000190 -7.999489 0.000082 -14.502780 62.440148 17.232026 -46.074059 115.382795 31.896765 -0.000002 0.000001 0.000009 0.058485 7.340836 1.310809 -0.000005 -0.000009 3.046592 -5.000214 7.999061 -0.000131 -3.231572 -172.137378 3.466995 179.999991 -0.000006 -0.957997 167.686171 -1.029759 -0.667772 -0.000002 0.000001 0.106825 70.194865 6.307167 3.608047 25.456948 -7.355615 0.000010 -0.421852 172.313201 -2.645102 -0.000005 -0.000005 -0.953567 -12.048752 1.757946 0.720492 -0.000001 -0.000001 -0.110302 71.902317 -6.120339 -4.063421 25.459074 7.355613 -0.003190 
55.136703 -8.583695 96.111702 -3.538597 0.511048 0.351579 -1.436468 -0.506312 0.037917 1.129061 -1.027070 0.080042 2.774235 -1.026027 0.092331 11.986741 0.783917 -7.458502 3.780616 -2.668678 -7.230368 -18.388389 -60.216286 -21.737611 -49.552090 -117.370353 -23.577970 0.000001 -0.000002 -0.000004 0.029474 -4.525179 -0.693233 0.000003 0.000009 -3.042763 -5.000186 -7.999490 0.000082 -14.497724 62.449861 17.226446 -46.069650 115.366676 31.908079 -0.000000 0.000001 0.000008 0.058486 7.351879 1.308667 -0.000004 -0.000009 3.046590 -5.000212 7.999062 -0.000131 -3.234734 -172.140383 3.463991 179.999991 -0.000005 -0.957997 167.687387 -1.027801 -0.668319 -0.000002 0.000001 0.106631 70.192058 6.306574 3.609703 25.456948 -7.355614 0.000008 -0.431324 172.310223 -2.642464 -0.000005 -0.000004 -0.953545 -12.056434 1.754395 0.720806 -0.000001 -0.000001 -0.110636 71.903259 -6.119998 -4.065215 25.459071 7.355611 -0.003191 
55.142506 -8.583073 96.110397 -3.536183 0.512729 0.351925 -1.436444 -0.506474 0.038021 1.128441 -1.026531 0.079284 2.773615 -1.025498 0.091562 11.970491 0.801029 -7.461667 3.785494 -2.692082 -7.231383 -18.397780 -60.212680 -21.748635 -49.570009 -117.384341 -23.595291 -0.000000 -0.000000 -0.000005 0.029471 -4.519790 -0.694096 0.000004 0.000009 -3.042761 -5.000187 -7.999490 0.000079 -14.492253 62.459505 17.220381 -46.066423 115.349724 31.921261 -0.000002 0.000000 0.000007 0.058487 7.363098 1.306530 -0.000004 -0.000009 3.046591 -5.000216 7.999061 -0.000131 -3.238119 -172.143416 3.460746 179.999991 -0.000004 -0.958995 167.688603 -1.025859 -0.667873 -0.000001 0.000000 0.106464 70.189373 6.306057 3.611265 25.456955 -7.355614 0.000008 -0.440981 172.307231 -2.639788 -0.000005 -0.000004 -0.953527 -12.064113 1.750736 0.721119 -0.000001 -0.000001 -0.110988 71.904222 -6.119719 -4.066818 25.459071 7.355611 -0.003189 
55.131702 -8.581493 96.102303 -3.533631 0.514473 0.352212 -1.436397 -0.506673 0.038149 1.127820 -1.026041 0.078550 2.772994 -1.025019 0.090817 11.953640 0.818552 -7.464759 3.791131 -2.716012 -7.232274 -18.408104 -60.208637 -21.760773 -49.588355 -117.398562 -23.614672 0.000001 -0.000001 -0.000005 0.029472 -4.515441 -0.695088 0.000002 0.000008 -3.042762 -5.000187 -7.999489 0.000080 -14.486457 62.469081 17.213928 -46.063212 115.332785 31.934553 -0.000003 0.000000 0.000008 0.058488 7.374438 1.304384 -0.000001 -0.000009 3.046590 -5.000214 7.999062 -0.000130 -3.241654 -172.147418 3.457397 179.999991 -0.000004 -0.958995 167.689805 -1.023915 -0.668424 -0.000002 0.000000 0.106315 70.186901 6.305543 3.612617 25.456953 -7.355613 0.000009 -0.450783 172.304240 -2.637083 -0.000005 -0.000004 -0.953513 -12.071793 1.747019 0.721433 -0.000002 -0.000001 -0.111355 71.905192 -6.119406 -4.068514 25.459071 7.355611 -0.003189 
55.135902 -8.579583 96.105499 -3.531020 0.516252 0.352464 -1.436347 -0.506894 0.038291 1.127210 -1.025592 0.077830 2.772383 -1.024579 0.090086 11.936492 0.836310 -7.467788 3.797223 -2.740240 -7.233067 -18.418947 -60.204293 -21.773508 -49.607135 -117.412974 -23.635356 0.000001 -0.000001 -0.000006 0.029472 -4.511690 -0.696151 0.000002 0.000008 -3.042761 -5.000190 -7.999489 0.000085 -14.480518 62.478684 17.207306 -46.058301 115.316461 31.946099 0.000002 0.000001 0.000008 0.058489 7.385856 1.302244 -0.000004 -0.000009 3.046591 -5.000214 7.999062 -0.000130 -3.245294 -172.150451 3.453888 179.999991 -0.000005 -0.958995 167.691021 -1.021957 -0.667974 -0.000001 0.000000 0.106176 70.184538 6.305037 3.614062 25.456950 -7.355615 0.000010 -0.460662 172.301248 -2.634367 -0.000005 -0.000004 -0.953500 -12.079473 1.743262 0.721747 -0.000001 -0.000001 -0.111727 71.906066 -6.119191 -4.070032 25.459074 7.355612 -0.003190 
55.141403 -8.583955 96.121597 -3.528393 0.518040 0.352707 -1.436289 -0.507120 0.038436 1.126600 -1.025152 0.077114 2.771773 -1.024141 0.089359 11.919144 0.854130 -7.470792 3.803422 -2.764547 -7.233846 -18.429927 -60.199942 -21.786410 -49.624442 -117.428055 -23.654654 -0.000000 -0.000001 -0.000004 0.029472 -4.508090 -0.697230 0.000003 0.000009 -3.042759 -5.000187 -7.999490 0.000080 -14.474458 62.488185 17.200546 -46.054897 115.299453 31.959422 -0.000000 0.000000 0.000007 0.058486 7.397296 1.300111 -0.000003 -0.000010 3.046589 -5.000211 7.999062 -0.000131 -3.248957 -172.153470 3.450356 179.999991 -0.000006 -0.958995 167.692223 -1.020013 -0.668537 -0.000002 0.000001 0.106041 70.182072 6.304558 3.615418 25.456952 -7.355615 0.000009 -0.470561 172.298256 -2.631646 -0.000005 -0.000005 -0.953487 -12.087152 1.739496 0.722061 -0.000001 -0.000001 -0.112102 71.906941 -6.118941 -4.071544 25.459074 7.355611 -0.003191 
55.133102 -8.581233 96.118103 -3.525795 0.519811 0.352968 -1.436234 -0.507335 0.038575 1.125990 -1.024692 0.076390 2.771163 -1.023692 0.088624 11.902001 0.871834 -7.473818 3.809398 -2.788705 -7.234649 -18.440667 -60.195728 -21.799034 -49.643191 -117.442494 -23.675087 -0.000001 -0.000001 -0.000005 0.029471 -4.504190 -0.698278 0.000004 0.000009 -3.042758 -5.000185 -7.999489 0.000080 -14.468557 62.497788 17.193966 -46.051676 115.282487 31.972799 -0.000001 0.000000 0.000008 0.058485 7.408704 1.297971 -0.000004 -0.000009 3.046591 -5.000214 7.999062 -0.000132 -3.252555 -172.157500 3.446929 179.999991 -0.000005 -0.958995 167.693425 -1.018056 -0.668088 -0.000002 0.000001 0.105900 70.179613 6.304082 3.616774 25.456950 -7.355613 0.000009 -0.480415 172.295278 -2.628940 -0.000005 -0.000004 -0.953474 -12.094732 1.735751 0.722370 -0.000000 -0.000002 -0.112473 71.907911 -6.118664 -4.073147 25.459067 7.355611 -0.003190 
55.129803 -8.581011 96.094696 -3.523286 0.521536 0.353271 -1.436198 -0.507523 0.038696 1.125369 -1.024192 0.075650 2.770552 -1.023193 0.087873 11.885356 0.889247 -7.476886 3.814829 -2.812484 -7.235552 -18.450648 -60.191718 -21.810756 -49.661325 -117.456646 -23.693783 -0.000004 -0.000002 -0.000007 0.029472 -4.499541 -0.699232 0.000004 0.000008 -3.042761 -5.000186 -7.999489 0.000081 -14.462830 62.507344 17.187590 -46.046916 115.266245 31.984280 -0.000002 0.000001 0.000007 0.058488 7.420016 1.295832 -0.000003 -0.000008 3.046592 -5.000214 7.999061 -0.000131 -3.256058 -172.160532 3.443560 179.999991 -0.000005 -0.960006 167.694736 -1.016113 -0.668637 -0.000002 0.000000 0.105745 70.177038 6.303565 3.618230 25.456953 -7.355613 0.000009 -0.490179 172.292287 -2.626236 -0.000005 -0.000004 -0.953459 -12.102410 1.732044 0.722678 -0.000001 -0.000001 -0.112836 71.908771 -6.118415 -4.074760 25.459071 7.355611 -0.003191 
55.134205 -8.579872 96.102303 -3.520917 0.523191 0.353643 -1.436175 -0.507670 0.038790 1.124739 -1.023623 0.074882 2.769921 -1.022634 0.087093 11.869407 0.906195 -7.480030 3.819384 -2.835658 -7.236602 -18.459618 -60.188276 -21.821305 -49.678841 -117.470497 -23.709923 -0.000001 -0.000000 -0.000004 0.029470 -4.493701 -0.700039 0.000003 0.000008 -3.042761 -5.000186 -7.999489 0.000082 -14.457497 62.517083 17.181681 -46.043695 115.249293 31.997247 -0.000001 0.000002 0.000009 0.058487 7.431178 1.293690 -0.000002 -0.000009 3.046592 -5.000212 7.999062 -0.000132 -3.259374 -172.163538 3.440397 179.999991 -0.000005 -0.960006 167.695938 -1.014170 -0.668191 -0.000002 0.000001 0.105570 70.174443 6.302981 3.619875 25.456955 -7.355614 0.000010 -0.499782 172.289295 -2.623572 -0.000005 -0.000005 -0.953440 -12.110192 1.728414 0.722988 -0.000002 -0.000001 -0.113182 71.909734 -6.118104 -4.076457 25.459073 7.355610 -0.003190 
55.131203 -8.580044 96.099403 -3.518735 0.524748 0.354109 -1.436197 -0.507757 0.038846 1.124099 -1.022963 0.074077 2.769281 -1.021986 0.086276 11.854559 0.922500 -7.483299 3.822721 -2.857997 -7.237864 -18.467095 -60.185551 -21.830084 -49.698372 -117.482641 -23.725840 -0.000001 -0.000001 -0.000006 0.029474 -4.486221 -0.700647 0.000004 0.000008 -3.042761 -5.000186 -7.999489 0.000080 -14.452612 62.526871 17.176293 -46.040803 115.232477 32.010221 -0.000001 0.000001 0.000010 0.058485 7.442148 1.291550 -0.000004 -0.000009 3.046591 -5.000217 7.999061 -0.000132 -3.262438 -172.166557 3.437488 179.999991 -0.000005 -0.960006 167.697140 -1.013185 -0.667954 -0.000002 0.000000 0.105366 70.171513 6.302382 3.621534 25.456955 -7.355613 0.000009 -0.509171 172.287301 -2.620945 -0.000005 -0.000004 -0.953415 -12.117870 1.724893 0.723292 -0.000000 -0.000001 -0.113509 71.910766 -6.117701 -4.078237 25.459071 7.355609 -0.003189 
55.127106 -8.578782 96.097397 -3.516796 0.526180 0.354694 -1.436243 -0.507771 0.038855 1.123438 -1.022194 0.073224 2.768620 -1.021217 0.085409 11.841112 0.937987 -7.486719 3.824525 -2.879284 -7.239393 -18.472670 -60.183618 -21.836642 -49.716845 -117.494280 -23.737320 -0.000002 -0.000001 -0.000005 0.029472 -4.476640 -0.700995 0.000001 0.000008 -3.042761 -5.000186 -7.999489 0.000080 -14.448367 62.536795 17.171662 -46.038265 115.215811 32.023000 -0.000001 0.000001 0.000010 0.058490 7.452866 1.289385 -0.000005 -0.000008 3.046592 -5.000215 7.999060 -0.000131 -3.265188 -172.169562 3.434922 179.999991 -0.000004 -0.960005 167.698452 -1.012218 -0.668716 -0.000002 0.000000 0.105127 70.168357 6.301673 3.623590 25.456955 -7.355613 0.000009 -0.518282 172.284309 -2.618365 -0.000005 -0.000004 -0.953386 -12.125753 1.721499 0.723596 -0.000000 -0.000001 -0.113809 71.911783 -6.117266 -4.080313 25.459066 7.355610 -0.003190 
55.131905 -8.574379 96.115997 -3.515149 0.527461 0.355426 -1.436346 -0.507695 0.038805 1.122758 -1.021274 0.072313 2.767939 -1.020319 0.084484 11.829259 0.952482 -7.490332 3.824453 -2.899290 -7.241251 -18.476002 -60.182832 -21.840554 -49.736748 -117.503883 -23.746566 -0.000001 -0.000001 -0.000005 0.029471 -4.464530 -0.701038 0.000004 0.000008 -3.042763 -5.000188 -7.999489 0.000080 -14.444921 62.546945 17.167945 -46.036073 115.199255 32.035599 0.000002 0.000002 0.000008 0.058488 7.463267 1.287227 -0.000002 -0.000008 3.046592 -5.000213 7.999062 -0.000131 -3.267567 -172.171597 3.432712 179.999991 -0.000006 -0.960005 167.699750 -1.011246 -0.668481 -0.000002 0.000000 0.104845 70.164956 6.300883 3.625744 25.456953 -7.355613 0.000010 -0.527063 172.282328 -2.615847 -0.000005 -0.000004 -0.953348 -12.133636 1.718271 0.723898 -0.000002 -0.000001 -0.114080 71.912897 -6.116770 -4.082372 25.459078 7.355611 -0.003191 
55.133305 -8.574345 96.111099 -3.513848 0.528562 0.356328 -1.436495 -0.507510 0.038687 1.122058 -1.020194 0.071335 2.767239 -1.019240 0.083489 11.819305 0.965807 -7.494166 3.822179 -2.917785 -7.243501 -18.476603 -60.183256 -21.841273 -49.755141 -117.512790 -23.749575 -0.000002 -0.000002 -0.000006 0.029472 -4.449421 -0.700719 0.000004 0.000008 -3.042760 -5.000188 -7.999489 0.000079 -14.442377 62.557300 17.165278 -46.034225 115.182849 32.047896 -0.000001 0.000002 0.000009 0.058488 7.473316 1.285056 -0.000004 -0.000009 3.046591 -5.000216 7.999061 -0.000131 -3.269490 -172.173605 3.430972 179.999991 -0.000006 -0.960006 167.701157 -1.010278 -0.668244 -0.000002 0.000001 0.104508 70.161117 6.300004 3.628210 25.456950 -7.355615 0.000009 -0.535455 172.279337 -2.613393 -0.000005 -0.000004 -0.953301 -12.141520 1.715219 0.724191 -0.000001 -0.000002 -0.114312 71.914153 -6.116121 -4.084699 25.459073 7.355611 -0.003190 
